<?xml version="1.0" encoding="utf-8"?>
<!-- Generator: Adobe Illustrator 16.0.0, SVG Export Plug-In . SVG Version: 6.00 Build 0)  -->
<!DOCTYPE svg PUBLIC "-//W3C//DTD SVG 1.1//EN" "http://www.w3.org/Graphics/SVG/1.1/DTD/svg11.dtd">
<svg version="1.1" xmlns="http://www.w3.org/2000/svg" xmlns:xlink="http://www.w3.org/1999/xlink" x="0px" y="0px" width="180px"
	 height="180px" viewBox="0 0 180 180" enable-background="new 0 0 180 180" xml:space="preserve">
<g id="back">
	<path fill="none" stroke="#FF442A" stroke-miterlimit="10" d="M30.624,39.366c3.11-3.111,6.221-6.222,9.331-9.333"/>
	<path fill="none" stroke="#FF442A" stroke-miterlimit="10" d="M40.549,49.438c6.278-6.274,12.555-12.548,18.831-18.823"/>
	<path fill="none" stroke="#FF442A" stroke-miterlimit="10" d="M30.804,49.184c6.264-6.261,12.528-12.522,18.791-18.783"/>
	<path fill="none" stroke="#FF442A" stroke-miterlimit="10" d="M50.789,49.198c6.226-6.223,12.452-12.445,18.677-18.669"/>
	<path fill="none" stroke="#FF442A" stroke-miterlimit="10" d="M61.029,48.958c6.015-6.011,12.029-12.023,18.043-18.036"/>
	<path fill="none" stroke="#FF442A" stroke-miterlimit="10" d="M71.269,48.719c5.964-5.961,11.929-11.922,17.892-17.884"/>
	<path fill="none" stroke="#FF442A" stroke-miterlimit="10" d="M79.588,50.399c6.651-6.647,13.301-13.295,19.951-19.943"/>
	<path fill="none" stroke="#FF442A" stroke-miterlimit="10" d="M80.351,59.636c9.615-9.61,19.229-19.221,28.842-28.833"/>
	<path fill="none" stroke="#FF442A" stroke-miterlimit="10" d="M80.494,69.493c13.135-12.668,25.954-25.66,38.744-38.675"/>
	<path fill="none" stroke="#FF442A" stroke-miterlimit="10" d="M110.794,50.245c6.413-6.421,12.829-12.84,19.247-19.257"/>
	<path fill="none" stroke="#FF442A" stroke-miterlimit="10" d="M80.11,81.002c6.641-6.664,13.283-13.325,19.929-19.984"/>
	<path fill="none" stroke="#FF442A" stroke-miterlimit="10" d="M121.655,49.657c6.373-6.32,12.745-12.641,19.107-18.972"/>
	<path fill="none" stroke="#FF442A" stroke-miterlimit="10" d="M80.604,90.513c6.37-6.365,12.734-12.737,19.118-19.088"/>
	<path fill="none" stroke="#FF442A" stroke-miterlimit="10" d="M30.974,140.139c3.165-3.174,6.334-6.342,9.503-9.512"/>
	<path fill="none" stroke="#FF442A" stroke-miterlimit="10" d="M131.952,49.077c5.907-5.908,11.814-11.815,17.724-17.721"/>
	<path fill="none" stroke="#FF442A" stroke-miterlimit="10" d="M80.193,100.886c6.624-6.627,13.25-13.252,19.87-19.884"/>
	<path fill="none" stroke="#FF442A" stroke-miterlimit="10" d="M31.738,149.374c6.415-6.432,12.834-12.858,19.256-19.282"/>
	<path fill="none" stroke="#FF442A" stroke-miterlimit="10" d="M80.089,121.226c6.278-6.246,12.543-12.504,18.847-18.724"/>
	<path fill="none" stroke="#FF442A" stroke-miterlimit="10" d="M51.306,149.806c6.32-6.203,12.582-12.466,18.86-18.71"/>
	<path fill="none" stroke="#FF442A" stroke-miterlimit="10" d="M142.915,49.048c2.436-2.45,4.867-4.904,7.294-7.361"/>
	<path fill="none" stroke="#FF442A" stroke-miterlimit="10" d="M80.087,111.046c6.368-6.358,12.726-12.727,19.116-19.062"/>
	<path fill="none" stroke="#FF442A" stroke-miterlimit="10" d="M42.307,148.806c6.266-6.281,12.544-12.548,18.819-18.819"/>
	<path fill="none" stroke="#FF442A" stroke-miterlimit="10" d="M61.64,149.473c6.557-6.438,31.253-31.05,37.78-37.519"/>
	<path fill="none" stroke="#FF442A" stroke-miterlimit="10" d="M71.473,149.64c6.56-6.574,21.469-21.496,28.031-28.068"/>
	<path fill="none" stroke="#FF442A" stroke-miterlimit="10" d="M80.965,150.147c6.06-6.072,12.12-12.143,18.181-18.214"/>
	<path fill="none" stroke="#FF442A" stroke-miterlimit="10" d="M92.276,148.915c2.611-2.621,15.051-15.069,17.663-17.689"/>
	<path fill="none" stroke="#FF442A" stroke-miterlimit="10" d="M102.607,148.578c2.611-2.621,15.051-15.069,17.663-17.689"/>
	<path fill="none" stroke="#FF442A" stroke-miterlimit="10" d="M110.636,151.022c6.415-6.432,12.834-12.858,19.256-19.282"/>
	<path fill="none" stroke="#FF442A" stroke-miterlimit="10" d="M132.146,149.544c5.662-5.577,11.282-11.196,16.917-16.8"/>
	<path fill="none" stroke="#FF442A" stroke-miterlimit="10" d="M121.204,150.454c6.266-6.281,12.544-12.548,18.819-18.819"/>
	<path fill="none" stroke="#FF442A" stroke-miterlimit="10" d="M141.57,150.104c2.951-2.909,5.895-5.825,8.836-8.743"/>
</g>
<g id="tavr">
	<polygon id="contur_1_" fill="none" stroke="#000000" stroke-width="3" stroke-linecap="round" stroke-miterlimit="10" points="
		99.5,130.5 99.5,49.5 149.5,49.5 149.5,30.5 30.5,30.5 30.5,49.5 80.5,49.5 80.5,130.5 30.5,130.5 30.5,149.5 149.5,149.5 
		149.5,130.5 	"/>
	<g>
		<path fill="none" stroke="#000000" stroke-width="0.25" stroke-linecap="round" stroke-miterlimit="10" d="M122.5,67.833"/>
	</g>
	<line fill="none" stroke="#000000" stroke-miterlimit="10" x1="27" y1="29.5" x2="2" y2="29.5"/>
	<line fill="none" stroke="#000000" stroke-miterlimit="10" x1="2" y1="150.5" x2="27" y2="150.5"/>
	<g>
		<g>
			<line fill="none" stroke="#000000" stroke-miterlimit="10" x1="14.5" y1="81" x2="14.5" y2="35"/>
			<g>
				<polygon points="14.5,30 17.549,37.462 14.5,35.691 11.452,37.462 				"/>
			</g>
		</g>
	</g>
	<line fill="none" stroke="#000000" stroke-miterlimit="10" x1="29.5" y1="27" x2="29.5" y2="2"/>
	<line fill="none" stroke="#000000" stroke-miterlimit="10" x1="150.5" y1="27" x2="150.5" y2="2"/>
	<g>
		<g>
			<line fill="none" stroke="#000000" stroke-miterlimit="10" x1="35" y1="14.5" x2="80" y2="14.5"/>
			<g>
				<polygon points="30,14.5 37.462,17.549 35.691,14.5 37.462,11.452 				"/>
			</g>
		</g>
	</g>
	<g>
		<g>
			<line fill="none" stroke="#000000" stroke-miterlimit="10" x1="100" y1="14.5" x2="145" y2="14.5"/>
			<g>
				<polygon points="150,14.5 142.538,17.549 144.309,14.5 142.538,11.452 				"/>
			</g>
		</g>
	</g>
	<g>
		<g>
			<line fill="none" stroke="#000000" stroke-miterlimit="10" x1="59" y1="106.5" x2="73" y2="106.5"/>
			<g>
				<polygon points="78,106.5 70.538,109.549 72.309,106.5 70.538,103.452 				"/>
			</g>
		</g>
	</g>
	<g>
		<g>
			<line fill="none" stroke="#000000" stroke-miterlimit="10" x1="130" y1="106.5" x2="107" y2="106.5"/>
			<g>
				<polygon points="101.438,106.5 108.899,103.451 107.129,106.5 108.899,109.548 				"/>
			</g>
		</g>
	</g>
	<text transform="matrix(1 0 0 1 85.1157 18.709)" font-family="'Tahoma'" font-size="18">b</text>
	<text transform="matrix(0 -1 1 0 18.084 94.7686)" font-family="'Tahoma'" font-size="18">h</text>
	<text transform="matrix(1 0 0 1 135.5249 110.1909)" font-family="'Tahoma'" font-size="18">s</text>
	<text transform="matrix(1 0 0 1 162.8545 74.9688)" font-family="'Tahoma'" font-size="18">t</text>
	<g>
		<g>
			<line fill="none" stroke="#000000" stroke-miterlimit="10" x1="14.5" y1="99" x2="14.5" y2="145"/>
			<g>
				<polygon points="14.5,150 11.451,142.538 14.5,144.309 17.548,142.538 				"/>
			</g>
		</g>
	</g>
	<g>
		<g>
			<polyline fill="none" stroke="#000000" stroke-miterlimit="10" points="129.5,57 129.5,70.5 159,70.5 			"/>
			<g>
				<polygon points="129.5,51.5 126.451,58.962 129.5,57.191 132.548,58.962 				"/>
			</g>
		</g>
	</g>
</g>
</svg>