<?xml version="1.0" encoding="utf-8"?>
<!-- Generator: Adobe Illustrator 16.0.0, SVG Export Plug-In . SVG Version: 6.00 Build 0)  -->
<!DOCTYPE svg PUBLIC "-//W3C//DTD SVG 1.1//EN" "http://www.w3.org/Graphics/SVG/1.1/DTD/svg11.dtd">
<svg version="1.1" xmlns="http://www.w3.org/2000/svg" xmlns:xlink="http://www.w3.org/1999/xlink" x="0px" y="0px" width="180px"
	 height="180px" viewBox="0 0 180 180" enable-background="new 0 0 180 180" xml:space="preserve">
<g id="back">
	<path fill="none" stroke="#FF442A" stroke-miterlimit="10" d="M30.127,34.008c1.287-1.285,2.575-2.569,3.862-3.853"/>
	<path fill="none" stroke="#FF442A" stroke-miterlimit="10" d="M30.197,43.909c4.727-4.715,9.454-9.429,14.182-14.143"/>
	<path fill="none" stroke="#FF442A" stroke-miterlimit="10" d="M30.641,52.822c7.921-7.807,15.892-15.564,23.932-23.249"/>
	<path fill="none" stroke="#FF442A" stroke-miterlimit="10" d="M30.481,62.886c11.26-11.209,22.605-22.335,34.091-33.313"/>
	<path fill="none" stroke="#FF442A" stroke-miterlimit="10" d="M55.265,48.83c6.37-6.355,12.741-12.71,19.114-19.063"/>
	<path fill="none" stroke="#FF442A" stroke-miterlimit="10" d="M29.303,74.749c6.53-6.522,13.061-13.043,19.593-19.563"/>
	<path fill="none" stroke="#FF442A" stroke-miterlimit="10" d="M64.761,49.381c6.401-6.417,12.81-12.826,19.229-19.226"/>
	<path fill="none" stroke="#FF442A" stroke-miterlimit="10" d="M30.335,83.976c6.389-6.429,12.778-12.858,19.171-19.283"/>
	<path fill="none" stroke="#FF442A" stroke-miterlimit="10" d="M84.625,49.47c6.258-6.243,12.517-12.485,18.777-18.727"/>
	<path fill="none" stroke="#FF442A" stroke-miterlimit="10" d="M30.808,103.229c6.086-6.086,12.173-12.171,18.261-18.255"/>
	<path fill="none" stroke="#FF442A" stroke-miterlimit="10" d="M74.442,49.397c6.362-6.307,12.745-12.593,19.157-18.85"/>
	<path fill="none" stroke="#FF442A" stroke-miterlimit="10" d="M30.646,93.311c6.303-6.366,12.611-12.728,18.93-19.078"/>
	<path fill="none" stroke="#FF442A" stroke-miterlimit="10" d="M94.474,49.621c6.243-6.229,12.487-12.456,18.732-18.682"/>
	<path fill="none" stroke="#FF442A" stroke-miterlimit="10" d="M30.941,113.098c6.07-6.073,12.141-12.145,18.214-18.215"/>
	<path fill="none" stroke="#FF442A" stroke-miterlimit="10" d="M104.966,49.13c6.079-6.064,12.159-12.128,18.24-18.19"/>
	<path fill="none" stroke="#FF442A" stroke-miterlimit="10" d="M30.605,123.442c6.397-6.403,12.795-12.805,19.194-19.205"/>
	<path fill="none" stroke="#FF442A" stroke-miterlimit="10" d="M115.09,48.989c4.779-4.766,9.56-9.531,14.341-14.295"/>
	<path fill="none" stroke="#FF442A" stroke-miterlimit="10" d="M29.921,134.139c6.361-6.372,12.723-12.743,19.086-19.112"/>
	<path fill="none" stroke="#FF442A" stroke-miterlimit="10" d="M126.259,49.265c0.968-0.975,1.935-1.95,2.902-2.926"/>
	<path fill="none" stroke="#FF442A" stroke-miterlimit="10" d="M29.529,144.616c7.506-7.529,15.026-15.044,22.555-22.551"/>
	<path fill="none" stroke="#FF442A" stroke-miterlimit="10" d="M33.794,150.351c6.76-6.646,13.495-13.318,20.211-20.008"/>
	<path fill="none" stroke="#FF442A" stroke-miterlimit="10" d="M44.483,149.663c6.249-6.393,12.522-12.761,18.815-19.111"/>
	<path fill="none" stroke="#FF442A" stroke-miterlimit="10" d="M55.776,149.495c6.596-6.501,13.169-13.026,19.726-19.567"/>
	<path fill="none" stroke="#FF442A" stroke-miterlimit="10" d="M66.163,149.183c6.434-6.36,12.856-12.732,19.269-19.114"/>
	<path fill="none" stroke="#FF442A" stroke-miterlimit="10" d="M75.776,149.495c6.431-6.339,12.841-12.701,19.235-19.077"/>
	<path fill="none" stroke="#FF442A" stroke-miterlimit="10" d="M95.604,149.667c6.241-6.402,12.501-12.786,18.776-19.155"/>
	<path fill="none" stroke="#FF442A" stroke-miterlimit="10" d="M85.776,149.495c6.431-6.339,12.841-12.701,19.235-19.077"/>
	<path fill="none" stroke="#FF442A" stroke-miterlimit="10" d="M105.604,149.667c6.241-6.402,12.501-12.786,18.776-19.155"/>
	<path fill="none" stroke="#FF442A" stroke-miterlimit="10" d="M115.604,149.667c6.241-6.402,12.501-12.786,18.776-19.155"/>
	<path fill="none" stroke="#FF442A" stroke-miterlimit="10" d="M125.776,149.495c6.593-6.5,13.165-13.021,19.719-19.56"/>
	<path fill="none" stroke="#FF442A" stroke-miterlimit="10" d="M136.123,149.148c4.243-4.099,8.469-8.214,12.682-12.343"/>
	<path fill="none" stroke="#FF442A" stroke-miterlimit="10" d="M146.123,149.148c1.305-1.26,2.608-2.522,3.91-3.786"/>
</g>
<g id="tavr">
	
		<polygon id="contur_1_" fill="none" stroke="#000000" stroke-width="3" stroke-linecap="round" stroke-linejoin="round" stroke-miterlimit="10" points="
		49.5,130.5 49.5,49.5 129.5,49.5 129.5,30.5 30.5,30.5 30.5,49.5 30.5,130.5 30.5,149.5 149.5,149.5 149.5,130.5 	"/>
	<g>
		<path fill="none" stroke="#000000" stroke-width="0.25" stroke-linecap="round" stroke-miterlimit="10" d="M122.5,67.833"/>
	</g>
	<line fill="none" stroke="#000000" stroke-miterlimit="10" x1="27" y1="29.5" x2="2" y2="29.5"/>
	<line fill="none" stroke="#000000" stroke-miterlimit="10" x1="2" y1="150.5" x2="27" y2="150.5"/>
	<g>
		<g>
			<line fill="none" stroke="#000000" stroke-miterlimit="10" x1="14.5" y1="81" x2="14.5" y2="35"/>
			<g>
				<polygon points="14.5,30 17.549,37.462 14.5,35.691 11.452,37.462 				"/>
			</g>
		</g>
	</g>
	<line fill="none" stroke="#000000" stroke-miterlimit="10" x1="29.5" y1="27" x2="29.5" y2="2"/>
	<line fill="none" stroke="#000000" stroke-miterlimit="10" x1="130.5" y1="27" x2="130.5" y2="2"/>
	<g>
		<g>
			<line fill="none" stroke="#000000" stroke-miterlimit="10" x1="35" y1="14.5" x2="72" y2="14.5"/>
			<g>
				<polygon points="30,14.5 37.462,17.549 35.691,14.5 37.462,11.452 				"/>
			</g>
		</g>
	</g>
	<g>
		<g>
			<line fill="none" stroke="#000000" stroke-miterlimit="10" x1="90" y1="14.5" x2="124" y2="14.5"/>
			<g>
				<polygon points="129.75,14.5 122.288,17.549 124.059,14.5 122.288,11.452 				"/>
			</g>
		</g>
	</g>
	<g>
		<g>
			<line fill="none" stroke="#000000" stroke-miterlimit="10" x1="80" y1="108.5" x2="57" y2="108.5"/>
			<g>
				<polygon points="51.438,108.5 58.899,105.451 57.129,108.5 58.899,111.548 				"/>
			</g>
		</g>
	</g>
	<text transform="matrix(1 0 0 1 76.7412 19.709)" font-family="'Tahoma'" font-size="18">a</text>
	<text transform="matrix(0 -1 1 0 18.084 94.7686)" font-family="'Tahoma'" font-size="18">h</text>
	<text transform="matrix(1 0 0 1 85.5249 112.1909)" font-family="'Tahoma'" font-size="18">s</text>
	<text transform="matrix(1 0 0 1 148.8545 74.9688)" font-family="'Tahoma'" font-size="18">t</text>
	<g>
		<g>
			<line fill="none" stroke="#000000" stroke-miterlimit="10" x1="14.5" y1="99" x2="14.5" y2="145"/>
			<g>
				<polygon points="14.5,150 11.451,142.538 14.5,144.309 17.548,142.538 				"/>
			</g>
		</g>
	</g>
	<g>
		<g>
			<polyline fill="none" stroke="#000000" stroke-miterlimit="10" points="115.5,57 115.5,70.5 145,70.5 			"/>
			<g>
				<polygon points="115.5,51.5 112.451,58.962 115.5,57.191 118.548,58.962 				"/>
			</g>
		</g>
	</g>
	<line fill="none" stroke="#000000" stroke-miterlimit="10" x1="29.5" y1="178" x2="29.5" y2="153"/>
	<line fill="none" stroke="#000000" stroke-miterlimit="10" x1="150.5" y1="178" x2="150.5" y2="153"/>
	<g>
		<g>
			<line fill="none" stroke="#000000" stroke-miterlimit="10" x1="35" y1="165.5" x2="80" y2="165.5"/>
			<g>
				<polygon points="30,165.5 37.462,168.549 35.691,165.5 37.462,162.452 				"/>
			</g>
		</g>
	</g>
	<g>
		<g>
			<line fill="none" stroke="#000000" stroke-miterlimit="10" x1="100" y1="165.5" x2="145" y2="165.5"/>
			<g>
				<polygon points="150,165.5 142.538,168.549 144.309,165.5 142.538,162.452 				"/>
			</g>
		</g>
	</g>
	<text transform="matrix(1 0 0 1 85.1157 169.709)" font-family="'Tahoma'" font-size="18">b</text>
</g>
</svg>