<?xml version="1.0" encoding="utf-8"?>
<!-- Generator: Adobe Illustrator 16.0.0, SVG Export Plug-In . SVG Version: 6.00 Build 0)  -->
<!DOCTYPE svg PUBLIC "-//W3C//DTD SVG 1.1//EN" "http://www.w3.org/Graphics/SVG/1.1/DTD/svg11.dtd">
<svg version="1.1" xmlns="http://www.w3.org/2000/svg" xmlns:xlink="http://www.w3.org/1999/xlink" x="0px" y="0px" width="180px"
	 height="180px" viewBox="0 0 180 180" enable-background="new 0 0 180 180" xml:space="preserve">
<g id="back">
	<path fill="none" stroke="#FF442A" stroke-miterlimit="10" d="M50.127,34.008c1.287-1.285,2.575-2.569,3.862-3.853"/>
	<path fill="none" stroke="#FF442A" stroke-miterlimit="10" d="M50.197,43.909c4.727-4.715,9.454-9.429,14.182-14.143"/>
	<path fill="none" stroke="#FF442A" stroke-miterlimit="10" d="M50.641,52.822c6.466-6.374,12.966-12.713,19.509-19.007"/>
	<path fill="none" stroke="#FF442A" stroke-miterlimit="10" d="M50.481,62.886c6.528-6.499,13.084-12.968,19.68-19.398"/>
	<path fill="none" stroke="#FF442A" stroke-miterlimit="10" d="M49.303,74.749c6.53-6.522,13.061-13.043,19.593-19.563"/>
	<path fill="none" stroke="#FF442A" stroke-miterlimit="10" d="M50.335,83.976c6.389-6.429,12.778-12.858,19.171-19.283"/>
	<path fill="none" stroke="#FF442A" stroke-miterlimit="10" d="M50.808,103.229c6.086-6.086,12.173-12.171,18.261-18.255"/>
	<path fill="none" stroke="#FF442A" stroke-miterlimit="10" d="M50.646,93.311c6.303-6.366,12.611-12.728,18.93-19.078"/>
	<path fill="none" stroke="#FF442A" stroke-miterlimit="10" d="M50.941,113.098c6.07-6.073,12.141-12.145,18.214-18.215"/>
	<path fill="none" stroke="#FF442A" stroke-miterlimit="10" d="M50.605,123.442c6.397-6.403,12.795-12.805,19.194-19.205"/>
	<path fill="none" stroke="#FF442A" stroke-miterlimit="10" d="M49.921,134.139c6.361-6.372,12.723-12.743,19.086-19.112"/>
	<path fill="none" stroke="#FF442A" stroke-miterlimit="10" d="M49.529,144.616c6.69-6.71,13.392-13.41,20.1-20.103"/>
	<path fill="none" stroke="#FF442A" stroke-miterlimit="10" d="M53.794,150.351c6.76-6.646,13.495-13.318,20.211-20.008"/>
	<path fill="none" stroke="#FF442A" stroke-miterlimit="10" d="M64.483,149.663c6.249-6.393,12.522-12.761,18.815-19.111"/>
	<path fill="none" stroke="#FF442A" stroke-miterlimit="10" d="M75.776,149.495c6.596-6.501,13.169-13.026,19.726-19.567"/>
	<path fill="none" stroke="#FF442A" stroke-miterlimit="10" d="M86.163,149.183c6.434-6.36,12.856-12.732,19.269-19.114"/>
	<path fill="none" stroke="#FF442A" stroke-miterlimit="10" d="M95.776,149.495c6.431-6.339,12.841-12.701,19.235-19.077"/>
	<path fill="none" stroke="#FF442A" stroke-miterlimit="10" d="M115.604,149.667c6.241-6.402,12.501-12.786,18.776-19.155"/>
	<path fill="none" stroke="#FF442A" stroke-miterlimit="10" d="M105.776,149.495c6.431-6.339,12.841-12.701,19.235-19.077"/>
	<path fill="none" stroke="#FF442A" stroke-miterlimit="10" d="M125.604,149.667c6.241-6.402,12.501-12.786,18.776-19.155"/>
	<path fill="none" stroke="#FF442A" stroke-miterlimit="10" d="M135.604,149.667c4.801-4.924,9.613-9.838,14.434-14.743"/>
	<path fill="none" stroke="#FF442A" stroke-miterlimit="10" d="M145.776,149.495c1.319-1.3,2.636-2.601,3.953-3.902"/>
</g>
<g id="tavr">
	
		<polygon id="contur_1_" fill="none" stroke="#000000" stroke-width="3" stroke-linecap="round" stroke-linejoin="round" stroke-miterlimit="10" points="
		69.5,130.5 69.5,49.5 69.5,30.5 50.5,30.5 50.5,49.5 50.5,130.5 50.5,149.5 149.5,149.5 149.5,130.5 	"/>
	<g>
		<g>
			<line fill="none" stroke="#000000" stroke-miterlimit="10" x1="100" y1="53.5" x2="77" y2="53.5"/>
			<g>
				<polygon points="71.438,53.5 78.899,50.451 77.129,53.5 78.899,56.548 				"/>
			</g>
		</g>
	</g>
	<text transform="matrix(1 0 0 1 105.5249 57.1909)" font-family="'Tahoma'" font-size="18">s</text>
	<line fill="none" stroke="#000000" stroke-miterlimit="10" stroke-dasharray="3,1,3,1,3,1" x1="51" y1="53.5" x2="69" y2="53.5"/>
	<line fill="none" stroke="#000000" stroke-miterlimit="10" x1="47" y1="29.5" x2="22" y2="29.5"/>
	<line fill="none" stroke="#000000" stroke-miterlimit="10" x1="22" y1="150.5" x2="47" y2="150.5"/>
	<g>
		<g>
			<line fill="none" stroke="#000000" stroke-miterlimit="10" x1="34.5" y1="81" x2="34.5" y2="35"/>
			<g>
				<polygon points="34.5,30 37.549,37.462 34.5,35.691 31.452,37.462 				"/>
			</g>
		</g>
	</g>
	<text transform="matrix(0 -1 1 0 38.084 94.7246)" font-family="'Tahoma'" font-size="18">b</text>
	<g>
		<g>
			<line fill="none" stroke="#000000" stroke-miterlimit="10" x1="34.5" y1="99" x2="34.5" y2="145"/>
			<g>
				<polygon points="34.5,150 31.451,142.538 34.5,144.309 37.548,142.538 				"/>
			</g>
		</g>
	</g>
	<line fill="none" stroke="#000000" stroke-miterlimit="10" x1="49.5" y1="178" x2="49.5" y2="153"/>
	<line fill="none" stroke="#000000" stroke-miterlimit="10" x1="150.5" y1="178" x2="150.5" y2="153"/>
	<g>
		<g>
			<line fill="none" stroke="#000000" stroke-miterlimit="10" x1="55" y1="165.5" x2="92" y2="165.5"/>
			<g>
				<polygon points="50,165.5 57.462,168.549 55.691,165.5 57.462,162.452 				"/>
			</g>
		</g>
	</g>
	<g>
		<g>
			<line fill="none" stroke="#000000" stroke-miterlimit="10" x1="110" y1="165.5" x2="144" y2="165.5"/>
			<g>
				<polygon points="149.75,165.5 142.288,168.549 144.059,165.5 142.288,162.452 				"/>
			</g>
		</g>
	</g>
	<text transform="matrix(1 0 0 1 96.7412 170.709)" font-family="'Tahoma'" font-size="18">a</text>
</g>
</svg>