<?xml version="1.0" encoding="utf-8"?>
<!-- Generator: Adobe Illustrator 16.0.0, SVG Export Plug-In . SVG Version: 6.00 Build 0)  -->
<!DOCTYPE svg PUBLIC "-//W3C//DTD SVG 1.1//EN" "http://www.w3.org/Graphics/SVG/1.1/DTD/svg11.dtd">
<svg version="1.1" xmlns="http://www.w3.org/2000/svg" xmlns:xlink="http://www.w3.org/1999/xlink" x="0px" y="0px" width="180px"
	 height="180px" viewBox="0 0 180 180" enable-background="new 0 0 180 180" xml:space="preserve">
<g id="back">
	<path fill="none" stroke="#FF442A" stroke-miterlimit="10" d="M-268.146,169.292"/>
	<path fill="none" stroke="#FF442A" stroke-miterlimit="10" d="M-258.146,169.292"/>
	<path fill="none" stroke="#FF442A" stroke-miterlimit="10" d="M-248.146,169.292"/>
	<path fill="none" stroke="#FF442A" stroke-miterlimit="10" d="M-54.896-3.958"/>
	<path fill="none" stroke="#FF442A" stroke-miterlimit="10" d="M-228.146,169.292"/>
	<path fill="none" stroke="#FF442A" stroke-miterlimit="10" d="M-64.896-3.958"/>
	<path fill="none" stroke="#FF442A" stroke-miterlimit="10" d="M-238.146,169.292"/>
	<path fill="none" stroke="#FF442A" stroke-miterlimit="10" d="M-44.896-3.958"/>
	<path fill="none" stroke="#FF442A" stroke-miterlimit="10" d="M-218.146,169.292"/>
	<path fill="none" stroke="#FF442A" stroke-miterlimit="10" d="M-34.896-3.958"/>
	<path fill="none" stroke="#FF442A" stroke-miterlimit="10" d="M-208.146,169.292"/>
	<path fill="none" stroke="#FF442A" stroke-miterlimit="10" d="M-24.896-3.958"/>
	<path fill="none" stroke="#FF442A" stroke-miterlimit="10" d="M-198.146,169.292"/>
	<path fill="none" stroke="#FF442A" stroke-miterlimit="10" d="M-14.896-3.958"/>
	<path fill="none" stroke="#FF442A" stroke-miterlimit="10" d="M-188.146,169.292"/>
	<path fill="none" stroke="#FF442A" stroke-miterlimit="10" d="M39.6,41.545c3.17-3.422,6.394-6.793,9.653-10.128"/>
	<path fill="none" stroke="#FF442A" stroke-miterlimit="10" d="M40.547,50.598c6.165-6.57,12.468-13.008,18.837-19.38"/>
	<path fill="none" stroke="#FF442A" stroke-miterlimit="10" d="M39.915,61.231C50.203,50.875,60.506,40.534,70.826,30.21"/>
	<path fill="none" stroke="#FF442A" stroke-miterlimit="10" d="M39.946,71.199c13.399-13.477,26.819-26.933,40.26-40.369"/>
	<path fill="none" stroke="#FF442A" stroke-miterlimit="10" d="M73.028,48.723c6.519-6.473,13.015-12.968,19.488-19.486"/>
	<path fill="none" stroke="#FF442A" stroke-miterlimit="10" d="M40.086,81.06c6.263-6.078,12.506-12.176,18.729-18.294"/>
	<path fill="none" stroke="#FF442A" stroke-miterlimit="10" d="M82.989,49.165c6.28-6.38,12.559-12.762,18.859-19.123"/>
	<path fill="none" stroke="#FF442A" stroke-miterlimit="10" d="M40.196,92.074c6.073-5.938,12.099-11.923,18.097-17.937"/>
	<path fill="none" stroke="#FF442A" stroke-miterlimit="10" d="M93.074,48.616c6.218-6.349,12.447-12.687,18.714-18.987"/>
	<path fill="none" stroke="#FF442A" stroke-miterlimit="10" d="M39.713,102.558c6.51-6.379,12.96-12.819,19.375-19.293"/>
	<path fill="none" stroke="#FF442A" stroke-miterlimit="10" d="M103.901,48.098c5.814-5.884,11.635-11.762,17.473-17.623"/>
	<path fill="none" stroke="#FF442A" stroke-miterlimit="10" d="M40.672,111.599c6.231-6.116,12.429-12.267,18.604-18.441"/>
	<path fill="none" stroke="#FF442A" stroke-miterlimit="10" d="M119.478,52.314c6.561-6.695,13.121-13.389,19.69-20.076"/>
	<path fill="none" stroke="#FF442A" stroke-miterlimit="10" d="M40.059,132.212c6.228-6.094,12.428-12.218,18.604-18.364"/>
	<path fill="none" stroke="#FF442A" stroke-miterlimit="10" d="M113,48.96c5.994-6.055,11.996-12.102,18.013-18.133"/>
	<path fill="none" stroke="#FF442A" stroke-miterlimit="10" d="M40.375,121.895c6.405-6.295,12.778-12.621,19.132-18.968"/>
	<path fill="none" stroke="#FF442A" stroke-miterlimit="10" d="M120.399,61.816c6.209-6.305,12.436-12.592,18.7-18.842"/>
	<path fill="none" stroke="#FF442A" stroke-miterlimit="10" d="M40.251,142.02c6.392-6.065,12.719-12.198,18.999-18.379"/>
	<path fill="none" stroke="#FF442A" stroke-miterlimit="10" d="M120.843,71.216c6.186-6.247,12.375-12.491,18.57-18.728"/>
	<path fill="none" stroke="#FF442A" stroke-miterlimit="10" d="M43.409,148.861c6.26-6.172,12.501-12.364,18.727-18.571"/>
	<path fill="none" stroke="#FF442A" stroke-miterlimit="10" d="M121.315,81.151c6.04-6.066,12.077-12.134,18.115-18.202"/>
	<path fill="none" stroke="#FF442A" stroke-miterlimit="10" d="M52.551,149.798c6.416-6.344,12.819-12.7,19.214-19.064"/>
	<path fill="none" stroke="#FF442A" stroke-miterlimit="10" d="M120.646,91.577c6.34-6.399,12.678-12.8,19.018-19.199"/>
	<path fill="none" stroke="#FF442A" stroke-miterlimit="10" d="M62.888,149.452c6.401-6.337,12.785-12.693,19.156-19.062"/>
	<path fill="none" stroke="#FF442A" stroke-miterlimit="10" d="M121.016,101.098c5.889-5.903,13.071-13.096,18.964-18.995"/>
	<path fill="none" stroke="#FF442A" stroke-miterlimit="10" d="M72.796,149.54c6.203-6.244,12.408-12.485,18.616-18.724"/>
	<path fill="none" stroke="#FF442A" stroke-miterlimit="10" d="M119.351,113.666c6.734-6.785,13.428-13.61,20.103-20.453"/>
	<path fill="none" stroke="#FF442A" stroke-miterlimit="10" d="M83.287,149.054c6.437-6.112,12.811-12.291,19.137-18.518"/>
	<path fill="none" stroke="#FF442A" stroke-miterlimit="10" d="M121.146,121.568c6.3-6.315,12.577-12.653,18.841-19.004"/>
	<path fill="none" stroke="#FF442A" stroke-miterlimit="10" d="M93.344,149.08c6.224-6.067,12.413-12.17,18.576-18.299"/>
	<path fill="none" stroke="#FF442A" stroke-miterlimit="10" d="M102.801,149.445c12.327-12.386,24.574-24.852,36.804-37.334"/>
	<path fill="none" stroke="#FF442A" stroke-miterlimit="10" d="M113.049,149.387c8.717-8.5,17.365-17.071,25.968-25.687"/>
	<path fill="none" stroke="#FF442A" stroke-miterlimit="10" d="M122.597,149.647c5.889-6.035,11.78-12.067,17.675-18.096"/>
	<path fill="none" stroke="#FF442A" stroke-miterlimit="10" d="M132.888,149.452c2.134-2.112,4.266-4.227,6.396-6.343"/>
</g>
<g id="tavr">
	
		<polyline fill="none" stroke="#000000" stroke-width="3" stroke-linecap="round" stroke-linejoin="round" stroke-miterlimit="10" points="
		120,130.5 59.5,130.5 59.5,49.5 120.5,49.5 120.222,130.417 	"/>
	
		<polyline fill="none" stroke="#000000" stroke-width="3" stroke-linecap="round" stroke-linejoin="round" stroke-miterlimit="10" points="
		139.5,131 139.5,30.5 40.5,30.5 40.5,49.5 40.5,130.5 40.5,149.5 139.5,149.5 139.5,131 	"/>
	<g>
		<g>
			<line fill="none" stroke="#000000" stroke-miterlimit="10" x1="163" y1="90.5" x2="147" y2="90.5"/>
			<g>
				<polygon points="141.438,90.5 148.899,87.451 147.129,90.5 148.899,93.548 				"/>
			</g>
		</g>
	</g>
	<text transform="matrix(1 0 0 1 167.8579 95.25)" font-family="'Tahoma'" font-size="18">s</text>
	
		<line fill="none" stroke="#000000" stroke-miterlimit="10" stroke-dasharray="3,1,3,1,3,1" x1="122" y1="90.5" x2="140" y2="90.5"/>
	<line fill="none" stroke="#000000" stroke-miterlimit="10" x1="36" y1="29.5" x2="11" y2="29.5"/>
	<line fill="none" stroke="#000000" stroke-miterlimit="10" x1="11" y1="150.5" x2="36" y2="150.5"/>
	<g>
		<g>
			<line fill="none" stroke="#000000" stroke-miterlimit="10" x1="23.5" y1="81" x2="23.5" y2="35"/>
			<g>
				<polygon points="23.5,30 26.549,37.462 23.5,35.691 20.452,37.462 				"/>
			</g>
		</g>
	</g>
	<text transform="matrix(0 -1 1 0 27.084 94.7246)" font-family="'Tahoma'" font-size="18">b</text>
	<g>
		<g>
			<line fill="none" stroke="#000000" stroke-miterlimit="10" x1="23.5" y1="99" x2="23.5" y2="145"/>
			<g>
				<polygon points="23.5,150 20.451,142.538 23.5,144.309 26.548,142.538 				"/>
			</g>
		</g>
	</g>
	<line fill="none" stroke="#000000" stroke-miterlimit="10" x1="39.5" y1="178" x2="39.5" y2="153"/>
	<line fill="none" stroke="#000000" stroke-miterlimit="10" x1="140.5" y1="178" x2="140.5" y2="153"/>
	<g>
		<g>
			<line fill="none" stroke="#000000" stroke-miterlimit="10" x1="45" y1="165.5" x2="81" y2="165.5"/>
			<g>
				<polygon points="40.047,165.5 47.509,168.549 45.738,165.5 47.509,162.452 				"/>
			</g>
		</g>
	</g>
	<g>
		<g>
			<line fill="none" stroke="#000000" stroke-miterlimit="10" x1="99" y1="165.5" x2="134" y2="165.5"/>
			<g>
				<polygon points="139.75,165.5 132.288,168.549 134.059,165.5 132.288,162.452 				"/>
			</g>
		</g>
	</g>
	<text transform="matrix(1 0 0 1 85.2759 170.709)" font-family="'Tahoma'" font-size="18">a</text>
	<g>
		<g>
			<line fill="none" stroke="#000000" stroke-miterlimit="10" x1="104" y1="90.5" x2="112" y2="90.5"/>
			<g>
				<polygon points="117.75,90.5 110.288,93.549 112.059,90.5 110.288,87.452 				"/>
			</g>
		</g>
	</g>
</g>
</svg>