<?xml version="1.0" encoding="utf-8"?>
<!-- Generator: Adobe Illustrator 16.0.0, SVG Export Plug-In . SVG Version: 6.00 Build 0)  -->
<!DOCTYPE svg PUBLIC "-//W3C//DTD SVG 1.1//EN" "http://www.w3.org/Graphics/SVG/1.1/DTD/svg11.dtd">
<svg version="1.1" xmlns="http://www.w3.org/2000/svg" xmlns:xlink="http://www.w3.org/1999/xlink" x="0px" y="0px" width="180px"
	 height="180px" viewBox="0 0 180 180" enable-background="new 0 0 180 180" xml:space="preserve">
<g id="back">
	<path fill="none" stroke="#FF442A" stroke-miterlimit="10" d="M-268.146,169.292"/>
	<path fill="none" stroke="#FF442A" stroke-miterlimit="10" d="M-258.146,169.292"/>
	<path fill="none" stroke="#FF442A" stroke-miterlimit="10" d="M-248.146,169.292"/>
	<path fill="none" stroke="#FF442A" stroke-miterlimit="10" d="M-54.896-3.958"/>
	<path fill="none" stroke="#FF442A" stroke-miterlimit="10" d="M-228.146,169.292"/>
	<path fill="none" stroke="#FF442A" stroke-miterlimit="10" d="M-64.896-3.958"/>
	<path fill="none" stroke="#FF442A" stroke-miterlimit="10" d="M-238.146,169.292"/>
	<path fill="none" stroke="#FF442A" stroke-miterlimit="10" d="M-44.896-3.958"/>
	<path fill="none" stroke="#FF442A" stroke-miterlimit="10" d="M-218.146,169.292"/>
	<path fill="none" stroke="#FF442A" stroke-miterlimit="10" d="M-34.896-3.958"/>
	<path fill="none" stroke="#FF442A" stroke-miterlimit="10" d="M-208.146,169.292"/>
	<path fill="none" stroke="#FF442A" stroke-miterlimit="10" d="M-24.896-3.958"/>
	<path fill="none" stroke="#FF442A" stroke-miterlimit="10" d="M-198.146,169.292"/>
	<path fill="none" stroke="#FF442A" stroke-miterlimit="10" d="M-14.896-3.958"/>
	<path fill="none" stroke="#FF442A" stroke-miterlimit="10" d="M-188.146,169.292"/>
</g>
<g id="tavr">
	
		<polyline fill="#FFFFFF" stroke="#000000" stroke-width="3" stroke-linecap="round" stroke-linejoin="round" stroke-miterlimit="10" points="
		139.5,131 139.5,30.5 40.5,30.5 40.5,49.5 40.5,130.5 40.5,149.5 139.5,149.5 139.5,131 	"/>
	<line fill="none" stroke="#000000" stroke-miterlimit="10" x1="39.5" y1="178" x2="39.5" y2="153"/>
	<line fill="none" stroke="#000000" stroke-miterlimit="10" x1="140.5" y1="178" x2="140.5" y2="153"/>
	<g>
		<g>
			<line fill="none" stroke="#000000" stroke-miterlimit="10" x1="45" y1="165.5" x2="81" y2="165.5"/>
			<g>
				<polygon points="40.047,165.5 47.509,168.549 45.738,165.5 47.509,162.452 				"/>
			</g>
		</g>
	</g>
	<g>
		<g>
			<line fill="none" stroke="#000000" stroke-miterlimit="10" x1="99" y1="165.5" x2="134" y2="165.5"/>
			<g>
				<polygon points="139.75,165.5 132.288,168.549 134.059,165.5 132.288,162.452 				"/>
			</g>
		</g>
	</g>
	<text transform="matrix(1 0 0 1 85.2759 170.709)" font-family="'Tahoma'" font-size="18">a</text>
</g>
</svg>