<?xml version="1.0" standalone="no"?>
<!DOCTYPE svg PUBLIC "-//W3C//DTD SVG 20010904//EN"
 "http://www.w3.org/TR/2001/REC-SVG-20010904/DTD/svg10.dtd">
<svg version="1.0" xmlns="http://www.w3.org/2000/svg"
 width="285.000000pt" height="365.000000pt" viewBox="0 0 285.000000 365.000000"
 preserveAspectRatio="xMidYMid meet">
<metadata>
Created by potrace 1.15, written by Peter Selinger 2001-2017
</metadata>
<g transform="translate(0.000000,365.000000) scale(0.100000,-0.100000)"
fill="#000000" stroke="none">
<path d="M10 3413 c0 -195 -1 -193 60 -220 16 -7 142 -13 355 -17 381 -6 528
-21 620 -61 61 -27 101 -93 115 -192 5 -32 8 -566 7 -1188 -2 -1062 -3 -1132
-20 -1170 -42 -94 -84 -112 -310 -131 -95 -8 -224 -14 -287 -13 -63 0 -201 1
-306 0 -252 -1 -234 15 -234 -216 l0 -175 1400 0 1400 0 0 169 0 168 -26 27
-27 26 -216 1 c-119 1 -232 3 -251 4 -19 2 -98 6 -175 9 -185 9 -228 14 -300
38 -108 37 -139 88 -155 255 -6 66 -10 510 -10 1135 0 1079 2 1124 45 1208 25
48 86 86 152 96 32 4 61 8 66 10 4 1 193 2 421 3 l414 1 31 29 31 29 0 165 c0
91 -3 168 -7 170 -5 3 -635 8 -1400 12 l-1393 8 0 -180z"/>
</g>
</svg>
