<?xml version="1.0" standalone="no"?>
<!DOCTYPE svg PUBLIC "-//W3C//DTD SVG 20010904//EN"
 "http://www.w3.org/TR/2001/REC-SVG-20010904/DTD/svg10.dtd">
<svg version="1.0" xmlns="http://www.w3.org/2000/svg"
 width="25px" height="25px" viewBox="0 0 484.000000 499.000000"
 preserveAspectRatio="xMidYMid meet">
<metadata>
Created by potrace 1.15, written by Peter Selinger 2001-2017
</metadata>
<g transform="translate(0.000000,499.000000) scale(0.100000,-0.100000)"
fill="#000000" stroke="none">
<path d="M4381 4959 c-25 -11 -63 -35 -85 -53 -23 -18 -75 -50 -116 -72 -116
-60 -250 -202 -250 -265 0 -11 -23 -28 -62 -47 -82 -38 -215 -167 -251 -243
-22 -47 -34 -58 -84 -84 -81 -41 -215 -175 -248 -247 -21 -45 -33 -58 -67 -74
-106 -48 -237 -182 -267 -275 -9 -27 -19 -38 -39 -42 -75 -15 -225 -154 -271
-250 -27 -56 -35 -64 -83 -86 -76 -34 -230 -191 -255 -261 -15 -43 -23 -52
-51 -60 -38 -10 -166 -110 -183 -143 -9 -17 -4 -15 20 10 33 31 94 53 150 53
16 0 33 5 37 11 3 6 15 8 26 6 13 -4 18 -1 15 7 -3 7 0 13 6 14 64 10 87 15
87 22 0 5 20 8 45 8 47 -1 54 -7 32 -30 -16 -16 -16 -40 0 -45 6 -2 19 10 28
26 17 34 61 43 72 16 8 -22 -4 -30 -22 -15 -9 7 -18 10 -22 6 -3 -3 0 -6 8 -6
11 0 11 -2 1 -9 -9 -5 4 -15 42 -32 36 -15 54 -29 51 -37 -3 -7 0 -10 5 -7 6
3 10 3 10 -2 -1 -11 -26 -43 -35 -43 -10 0 -165 -161 -165 -172 0 -4 -4 -8
-10 -8 -5 0 -33 -25 -63 -55 -29 -30 -51 -55 -49 -55 3 0 -47 -51 -111 -114
-64 -63 -113 -117 -110 -120 4 -3 14 1 23 9 15 13 16 12 14 -16 -1 -19 -11
-37 -24 -46 -13 -9 -32 -27 -43 -40 -27 -30 -37 -29 -37 4 0 26 -2 25 -50 -25
-27 -29 -50 -59 -50 -67 0 -39 -101 -172 -121 -159 -5 3 -9 -2 -9 -11 0 -11
-5 -15 -15 -11 -8 3 -14 2 -13 -2 3 -7 -49 -62 -57 -62 -2 0 -2 9 0 19 2 14
-1 18 -11 14 -7 -3 -11 -9 -8 -15 3 -5 -2 -18 -11 -28 -9 -10 -14 -23 -11 -28
6 -9 -77 -95 -90 -93 -5 0 -9 -5 -9 -13 0 -26 -215 -234 -236 -228 -6 1 -8 -2
-4 -8 4 -6 -6 -23 -22 -38 -15 -15 -37 -39 -49 -52 -11 -14 -64 -67 -117 -118
-69 -66 -95 -97 -91 -110 4 -12 3 -13 -3 -5 -7 10 -13 10 -28 -1 -16 -12 -17
-16 -6 -29 7 -9 20 -13 29 -10 12 4 10 -1 -7 -20 -29 -32 -34 -33 -27 -9 3 9
1 23 -3 31 -12 19 -31 4 -72 -55 -20 -30 -25 -44 -16 -48 6 -3 3 -4 -7 -3 -13
1 -26 -11 -43 -40 -25 -46 -22 -53 11 -26 15 13 15 11 -3 -9 -20 -23 -27 -25
-39 -16 -9 8 -10 14 -3 16 6 2 11 8 11 14 0 6 -6 6 -15 -2 -17 -14 -20 -40 -5
-40 6 0 10 -5 10 -11 0 -8 -4 -8 -14 0 -18 15 -40 6 -68 -31 -25 -34 -29 -37
-70 -69 -24 -17 -26 -24 -17 -41 6 -11 8 -22 5 -26 -3 -3 -6 0 -6 6 0 7 -7 12
-15 12 -17 0 -19 -12 -5 -26 7 -7 1 -18 -17 -35 -21 -18 -23 -19 -10 -3 10 13
15 28 11 38 -6 15 -18 7 -70 -45 -35 -35 -64 -68 -64 -74 0 -5 4 -4 9 4 5 8
14 10 21 6 8 -5 11 -4 7 2 -8 12 27 46 36 36 12 -12 8 -19 -47 -74 -76 -77
-79 -85 -60 -166 15 -65 14 -132 -2 -193 -6 -23 -4 -22 33 12 32 31 46 38 80
38 23 0 53 4 67 9 33 13 74 86 82 147 8 61 53 114 97 114 41 0 144 57 174 96
28 38 63 124 63 158 0 32 27 52 79 61 57 9 107 30 150 62 35 27 86 123 98 183
12 65 28 79 90 79 46 -1 63 4 97 28 57 40 113 118 132 183 27 91 32 100 56
100 42 0 142 56 185 102 46 51 70 93 88 152 11 37 16 41 61 51 142 32 247 137
276 276 l11 55 58 -4 c49 -4 65 0 102 21 91 53 154 150 164 252 l6 53 72 4
c60 4 79 10 118 37 62 43 107 122 131 231 4 22 13 27 66 37 102 19 185 101
240 236 13 32 30 57 38 57 8 0 41 14 74 32 76 41 166 138 210 227 30 62 37 70
73 81 94 28 200 121 250 221 21 41 33 52 85 75 77 34 181 142 230 237 32 61
41 71 100 104 133 74 285 262 305 378 5 29 21 54 58 92 l50 51 -22 86 c-11 47
-21 100 -21 118 0 18 -10 49 -23 70 -90 147 -160 215 -251 243 -64 19 -82 19
-135 -6z m195 -159 c48 -19 13 -28 -131 -33 -142 -5 -187 -14 -329 -67 -47
-17 -61 -19 -67 -8 -9 14 9 41 21 33 4 -3 10 2 13 10 13 32 89 58 192 65 161
11 272 11 301 0z m-317 -344 c17 -21 -5 -25 -139 -25 -128 1 -212 -15 -328
-62 -88 -35 -102 -36 -74 -6 11 12 22 27 23 32 4 16 45 45 86 60 55 20 416 21
432 1z m-355 -327 c73 -20 26 -33 -127 -34 -156 -1 -232 -17 -365 -76 -52 -24
-62 -26 -49 -11 9 10 17 24 17 30 0 19 42 53 95 78 46 22 62 24 220 24 94 0
187 -5 209 -11z m-325 -337 c41 -22 41 -38 -2 -35 -119 7 -252 2 -317 -11 -77
-16 -232 -73 -238 -88 -2 -4 -8 -5 -13 -2 -6 3 -1 14 10 23 11 10 21 24 23 32
5 21 67 65 118 82 33 11 91 16 215 16 146 1 175 -1 204 -17z m-389 -310 c0 -4
12 -9 26 -10 33 -2 84 -32 84 -49 0 -19 -41 -38 -50 -23 -19 30 -209 39 -322
16 -81 -18 -141 -38 -206 -69 l-49 -24 16 28 c9 16 19 29 24 29 4 0 7 6 7 13
0 12 58 57 95 72 11 5 92 12 180 15 88 4 168 7 178 8 9 1 17 -2 17 -6z m-356
-289 c3 -4 26 -8 51 -9 25 -1 51 -7 59 -13 7 -6 22 -9 32 -5 16 5 16 4 4 -5
-12 -8 -8 -11 18 -11 47 0 47 0 44 15 -2 10 3 13 13 9 8 -3 15 -8 15 -11 0
-10 -54 -53 -66 -53 -8 0 -14 -5 -14 -11 0 -19 -39 -64 -184 -208 l-54 -54
-58 36 c-32 21 -54 37 -49 37 6 0 1 7 -9 15 -11 8 -18 15 -15 16 30 5 65 3 70
-4 8 -11 29 -1 29 13 0 5 -7 7 -15 4 -9 -4 -15 0 -15 10 0 9 5 16 10 16 6 0
10 7 10 17 0 13 5 11 21 -8 21 -24 21 -24 15 -2 -6 18 -4 22 8 17 10 -4 15 2
18 18 2 15 9 22 19 20 10 -1 19 7 22 20 5 18 9 20 19 10 16 -16 38 -15 38 2 0
10 -20 16 -75 21 -122 12 -303 -23 -393 -76 -18 -10 -40 -19 -48 -19 -25 0 14
57 65 96 52 41 106 57 184 56 31 -1 57 3 57 9 0 5 9 9 19 9 11 0 22 4 26 9 3
5 20 8 39 6 18 -1 40 1 47 6 17 11 33 11 43 2z"/>
<path d="M2290 2759 c-36 -6 -110 -25 -164 -44 -55 -19 -102 -32 -105 -29 -3
3 -17 -18 -31 -47 -21 -44 -31 -54 -60 -62 -19 -5 -55 -24 -80 -42 -74 -54
-120 -112 -56 -70 12 8 45 18 72 21 27 4 58 12 69 17 11 6 26 10 32 9 7 -2 10
3 7 11 -9 24 67 46 136 40 33 -3 60 -10 60 -14 0 -5 33 -8 73 -8 55 1 81 -3
112 -19 22 -11 42 -18 45 -15 7 6 -26 30 -72 51 -41 19 -46 27 -23 36 8 3 15
0 15 -6 0 -9 3 -9 12 0 14 14 42 16 33 2 -8 -12 5 -13 25 0 16 10 15 11 -15
29 l-20 12 20 -3 c11 -1 25 1 31 5 7 4 30 0 53 -8 24 -8 43 -10 46 -4 4 5 1 9
-4 9 -6 0 -11 5 -11 11 0 6 8 8 19 4 14 -4 23 0 30 14 9 17 7 20 -17 25 -15 3
-40 3 -56 1 -33 -4 -76 10 -76 25 0 5 7 10 16 10 10 0 14 6 10 15 -3 8 -1 15
4 15 6 0 10 -9 10 -20 0 -11 5 -20 10 -20 6 0 10 9 10 19 0 18 6 19 63 14 41
-3 59 -2 52 5 -15 14 -200 22 -275 11z"/>
<path d="M2000 2433 c-110 -12 -185 -34 -304 -91 -5 -3 -6 3 -3 12 4 9 3 15
-2 12 -5 -3 -11 -20 -15 -38 -8 -40 -43 -78 -71 -78 -24 0 -86 -42 -123 -82
l-22 -25 59 11 c33 6 63 14 67 19 4 4 14 7 21 7 8 0 25 11 39 25 14 14 33 25
42 26 50 3 100 1 127 -6 17 -4 60 -9 97 -11 37 -1 72 -6 79 -9 6 -4 15 -3 21
3 7 7 -12 17 -62 32 -69 20 -71 22 -51 36 11 8 21 23 21 32 0 12 3 13 12 4 18
-18 41 -15 34 4 -4 11 0 14 16 12 11 -2 23 3 26 11 3 9 0 11 -8 6 -9 -6 -11
-4 -5 5 4 7 2 16 -6 21 -10 6 -8 9 9 9 12 0 22 -4 22 -10 0 -5 6 -7 14 -4 8 3
21 -5 30 -18 l16 -22 0 33 c0 33 0 33 36 26 31 -5 36 -4 31 10 -4 10 0 18 11
23 36 14 -72 24 -158 15z"/>
<path d="M1571 2089 c-29 -5 -85 -22 -124 -39 -38 -16 -75 -27 -80 -23 -6 3
-7 1 -3 -5 4 -7 2 -12 -3 -12 -6 0 -11 -9 -11 -19 0 -23 -54 -71 -79 -71 -9 0
-37 -13 -62 -29 -47 -30 -109 -91 -93 -91 6 0 15 5 20 10 6 6 37 15 69 20 32
5 65 16 74 24 9 8 25 16 36 18 11 2 25 14 30 27 9 21 14 22 65 17 68 -8 215
-35 253 -46 15 -5 27 -5 27 0 0 12 -82 50 -108 50 -11 0 -24 5 -27 10 -3 6
-15 10 -26 10 -10 0 -19 4 -19 9 0 5 10 7 21 4 18 -5 20 -3 14 16 -5 18 -2 21
18 21 14 0 28 6 30 13 3 7 6 5 6 -5 1 -10 -4 -18 -10 -18 -5 0 -7 -5 -4 -11 4
-6 17 1 34 19 14 16 33 31 41 34 11 4 8 8 -10 16 -24 10 -23 10 17 17 24 4 40
11 37 16 -3 5 0 9 5 9 6 0 11 5 11 10 0 12 -73 11 -149 -1z"/>
<path d="M1255 1759 c-70 -10 -116 -24 -170 -52 -22 -12 -43 -20 -47 -19 -5 1
-8 -5 -8 -13 0 -22 -60 -85 -82 -85 -10 0 -29 -5 -41 -11 -35 -19 -117 -90
-117 -101 0 -6 8 -4 18 5 10 10 31 17 45 17 39 0 109 29 133 55 16 17 25 20
33 12 8 -8 11 -7 11 4 0 12 11 14 68 8 37 -3 86 -11 109 -18 24 -6 57 -11 75
-10 18 2 43 -3 56 -10 12 -6 22 -8 22 -4 0 9 -58 38 -75 38 -5 0 -16 4 -22 8
-7 5 -18 5 -25 1 -7 -4 -8 -3 -4 4 4 7 6 12 4 13 -2 0 -25 3 -53 6 -62 6 -72
13 -18 13 29 0 40 4 40 15 0 8 -4 15 -9 15 -4 0 -8 -4 -8 -10 0 -5 -4 -10 -8
-10 -21 0 -6 34 20 44 15 6 28 14 28 19 0 5 13 6 29 2 27 -6 38 2 39 29 1 14
23 24 48 21 15 -1 24 3 24 11 0 16 -23 16 -115 3z"/>
<path d="M829 1411 c-65 -21 -119 -51 -119 -66 0 -20 -64 -73 -97 -80 -18 -3
-56 -29 -90 -60 -43 -41 -50 -51 -28 -40 17 8 44 15 60 15 17 0 47 11 67 25
20 14 43 25 51 25 7 0 22 7 33 15 23 18 56 19 72 3 7 -7 12 -9 12 -6 0 3 27 0
60 -8 63 -14 140 -16 140 -3 0 4 -15 11 -32 15 -18 4 -35 9 -38 10 -3 0 -20 5
-37 9 -18 4 -33 12 -33 17 0 6 -10 8 -23 5 -12 -4 -29 -2 -37 4 -13 9 -13 10
0 7 20 -3 70 31 70 48 0 10 7 13 25 8 23 -6 25 -3 25 27 1 34 1 34 14 10 10
-19 14 -20 19 -8 3 9 16 17 29 20 20 4 20 4 -4 6 -16 0 -28 6 -28 11 0 15 -48
11 -111 -9z"/>
<path d="M490 1082 c-44 -13 -65 -27 -114 -79 -39 -41 -68 -63 -82 -63 -13 0
-44 -19 -71 -41 -52 -45 -67 -66 -39 -56 10 4 33 7 52 7 24 0 42 8 58 25 13
14 31 25 41 25 12 0 16 6 12 20 -6 24 8 27 17 4 5 -13 9 -14 21 -4 10 9 35 10
82 6 38 -4 80 -8 95 -9 14 -1 24 -5 21 -9 -2 -5 10 -8 27 -8 17 0 41 -5 53
-11 20 -10 20 -10 7 4 -8 9 -24 17 -35 19 -11 2 -23 7 -26 11 -3 4 -37 12 -75
18 -38 5 -75 11 -81 14 -18 6 -16 25 2 25 9 0 18 7 21 15 4 8 9 13 14 10 4 -2
18 7 30 20 13 14 29 25 36 25 7 0 19 8 26 18 7 11 20 21 28 25 35 13 -70 4
-120 -11z"/>
</g>
</svg>
