<?xml version="1.0" standalone="no"?>
<!DOCTYPE svg PUBLIC "-//W3C//DTD SVG 20010904//EN"
 "http://www.w3.org/TR/2001/REC-SVG-20010904/DTD/svg10.dtd">
<svg version="1.0" xmlns="http://www.w3.org/2000/svg"
 width="25px" height="25px" viewBox="0 0 154.000000 190.000000"
 preserveAspectRatio="xMidYMid meet">
<metadata>
Created by potrace 1.15, written by Peter Selinger 2001-2017
</metadata>
<g transform="translate(0.000000,190.000000) scale(0.100000,-0.100000)"
fill="#000000" stroke="none">
<path d="M696 1838 l-36 -42 0 -760 c0 -729 0 -761 -18 -779 -18 -17 -37 -18
-258 -17 l-239 1 -58 -59 c-51 -52 -58 -63 -55 -93 l3 -34 730 0 730 0 3 29
c3 24 -7 39 -60 93 l-63 64 -229 -1 c-228 -1 -229 -1 -253 22 l-23 24 0 755 0
755 -36 42 c-50 59 -88 59 -138 0z"/>
</g>
</svg>
